HIERARCHY
ROOT Hips
{
	OFFSET 0.00000 0.00000 0.00000
	CHANNELS 6 Xposition Yposition Zposition Zrotation Yrotation Xrotation 
	JOINT LHipJoint
	{
		OFFSET 0 0 0
		CHANNELS 3 Zrotation Yrotation Xrotation
		JOINT LeftUpLeg
		{
			OFFSET 1.73240 -1.89999 0.57994
			CHANNELS 3 Zrotation Yrotation Xrotation
			JOINT LeftLeg
			{
				OFFSET 2.43106 -6.67930 0.00000
				CHANNELS 3 Zrotation Yrotation Xrotation
				JOINT LeftFoot
				{
					OFFSET 2.78854 -7.66147 0.00000
					CHANNELS 3 Zrotation Yrotation Xrotation
					JOINT LeftToeBase
					{
						OFFSET 0.17314 -0.47571 2.01064
						CHANNELS 3 Zrotation Yrotation Xrotation
						End Site
						{
							OFFSET 0.00000 -0.00000 1.04147
						}
					}
				}
			}
		}
	}
	JOINT RHipJoint
	{
		OFFSET 0 0 0
		CHANNELS 3 Zrotation Yrotation Xrotation
		JOINT RightUpLeg
		{
			OFFSET -1.57078 -1.89998 0.57994
			CHANNELS 3 Zrotation Yrotation Xrotation
			JOINT RightLeg
			{
				OFFSET -2.50166 -6.87326 0.00000
				CHANNELS 3 Zrotation Yrotation Xrotation
				JOINT RightFoot
				{
					OFFSET -2.77304 -7.61886 0.00000
					CHANNELS 3 Zrotation Yrotation Xrotation
					JOINT RightToeBase
					{
						OFFSET -0.23513 -0.64602 2.11039
						CHANNELS 3 Zrotation Yrotation Xrotation
						End Site
						{
							OFFSET -0.00000 -0.00000 1.10597
						}
					}
				}
			}
		}
	}
	JOINT LowerBack
	{
		OFFSET 0 0 0
		CHANNELS 3 Zrotation Yrotation Xrotation
		JOINT Spine
		{
			OFFSET -0.00908 2.00015 -0.35323
			CHANNELS 3 Zrotation Yrotation Xrotation
			JOINT Spine1
			{
				OFFSET 0.05647 2.02258 0.04270
				CHANNELS 3 Zrotation Yrotation Xrotation
				JOINT Neck
				{
					OFFSET 0 0 0
					CHANNELS 3 Zrotation Yrotation Xrotation
					JOINT Neck1
					{
						OFFSET -0.02074 1.73711 0.13117
						CHANNELS 3 Zrotation Yrotation Xrotation
						JOINT Head
						{
							OFFSET -0.02359 1.73615 -0.24320
							CHANNELS 3 Zrotation Yrotation Xrotation
							End Site
							{
								OFFSET -0.00579 1.75982 -0.09688
							}
						}
					}
				}
				JOINT LeftShoulder
				{
					OFFSET 0 0 0
					CHANNELS 3 Zrotation Yrotation Xrotation
					JOINT LeftArm
					{
						OFFSET 3.20537 1.11432 -0.27680
						CHANNELS 3 Zrotation Yrotation Xrotation
						JOINT LeftForeArm
						{
							OFFSET 5.05923 -0.00000 -0.00000
							CHANNELS 3 Zrotation Yrotation Xrotation
							JOINT LeftHand
							{
								OFFSET 3.51996 -0.00000 0.00000
								CHANNELS 3 Zrotation Yrotation Xrotation
								JOINT LeftFingerBase
								{
									OFFSET 0 0 0
									CHANNELS 3 Zrotation Yrotation Xrotation
									JOINT LeftHandIndex1
									{
										OFFSET 0.65238 -0.00000 0.00000
										CHANNELS 3 Zrotation Yrotation Xrotation
										End Site
										{
											OFFSET 0.52596 -0.00000 0.00000
										}
									}
								}
								JOINT LThumb
								{
									OFFSET 0 0 0
									CHANNELS 3 Zrotation Yrotation Xrotation
									End Site
									{
										OFFSET 0.53399 -0.00000 0.53399
									}
								}
							}
						}
					}
				}
				JOINT RightShoulder
				{
					OFFSET 0 0 0
					CHANNELS 3 Zrotation Yrotation Xrotation
					JOINT RightArm
					{
						OFFSET -2.96983 1.42602 -0.37449
						CHANNELS 3 Zrotation Yrotation Xrotation
						JOINT RightForeArm
						{
							OFFSET -5.40867 -0.00000 0.00000
							CHANNELS 3 Zrotation Yrotation Xrotation
							JOINT RightHand
							{
								OFFSET -3.12964 -0.00000 0.00000
								CHANNELS 3 Zrotation Yrotation Xrotation
								JOINT RightFingerBase
								{
									OFFSET 0 0 0
									CHANNELS 3 Zrotation Yrotation Xrotation
									JOINT RightHandIndex1
									{
										OFFSET -0.83271 -0.00000 0.00000
										CHANNELS 3 Zrotation Yrotation Xrotation
										End Site
										{
											OFFSET -0.67135 -0.00000 0.00000
										}
									}
								}
								JOINT RThumb
								{
									OFFSET 0 0 0
									CHANNELS 3 Zrotation Yrotation Xrotation
									End Site
									{
										OFFSET -0.68160 -0.00000 0.68160
									}
								}
							}
						}
					}
				}
			}
		}
	}
}
MOTION
Frames: 5
Frame Time: .0083333
2.1117 18.3945 45.6441 0 0 0 0 0 0 -21 0 0 0 0 0 0 0 0 0 0 0 0 0 0 21 0 0 0 0 0 0 0 0 0 0 0 0 0 0 0 0 0 0 0 0 0 0 -16 0 0 21 0 0 11 0 0 0 -8 0 0 0 0 0 0 0 0 0 0 0 0 0 0 0 0 0 0 0 0 8 0 0 0 0 0 0 0 0 0 0 0 0 0 0 0 0 0
2.1117 18.3945 45.6441 -2.9417 12.2513 -5.3146 0.0000 0.0000 0.0000 -17.4058 -10.9413 0.4947 1.9290 8.7166 24.9128 0.6009 -1.6585 -14.1690 0.6553 -5.1780 -14.4169 0.0000 0.0000 0.0000 22.8418 1.3412 -0.0579 -1.8458 -8.5373 24.3584 -0.3856 -16.0946 -26.2225 -0.5445 -4.7275 13.1328 -5.9118 -4.3155 16.8758 2.8639 -6.7784 -4.7680 8.4759 -2.4609 -13.8301 -12.4402 -21.9729 11.3089 6.7245 -30.9658 6.2815 3.0850 -15.7542 3.0947 -0.0000 0.0000 0.0000 -85.9658 25.1607 7.0428 28.8009 -39.8432 -10.6329 -0.0000 0.0000 -10.6092 12.0829 51.9536 9.5691 -7.1250 0.0000 -0.0000 -62.8637 75.4170 -48.8029 -0.0000 0.0000 0.0000 35.0450 13.8782 -84.4625 -18.2003 28.4129 -4.6442 0.0000 -0.0000 -53.0973 -11.3939 -5.3664 1.0797 7.1250 -0.0000 -0.0000 12.6785 -35.2160 3.1101
2.1279 18.3908 45.6342 -2.6140 12.5093 -5.2212 0.0000 0.0000 0.0000 -17.8276 -10.9281 0.4814 1.9144 8.6855 24.8165 0.5869 -1.7399 -13.9787 0.6662 -5.2197 -14.5362 0.0000 0.0000 0.0000 22.2932 0.8612 -0.3031 -1.8637 -8.5762 24.4783 -0.4047 -15.7882 -26.0119 -0.5160 -4.6041 12.7827 -5.9693 -4.3916 16.9246 2.7181 -6.9155 -4.7592 8.3807 -2.5272 -13.8371 -12.4133 -21.9866 11.2462 6.7368 -30.9758 6.2927 3.0768 -15.7571 3.1062 -0.0000 0.0000 0.0000 -85.9708 25.0441 7.0299 28.9315 -39.9598 -10.7167 -0.0000 0.0000 -10.4106 11.8125 52.1194 9.3734 -7.1250 0.0000 -0.0000 -63.6118 75.3725 -49.4236 -0.0000 0.0000 0.0000 35.0925 14.1912 -85.3996 -18.3556 28.6101 -4.7183 0.0000 -0.0000 -52.1166 -12.4024 -4.0517 0.8902 7.1250 -0.0000 -0.0000 11.6468 -33.9496 3.2133
2.1241 18.3878 45.6397 -2.7104 12.3888 -5.4075 0.0000 0.0000 0.0000 -17.6808 -10.7119 0.6141 1.9120 8.6802 24.8001 0.5871 -1.8322 -13.9620 0.6000 -4.9587 -13.7907 0.0000 0.0000 0.0000 22.4907 1.0457 -0.0166 -1.8636 -8.5760 24.4778 -0.4175 -15.8746 -26.2171 -0.5418 -4.7158 13.0998 -6.3092 -4.4210 15.5290 2.8296 -6.8961 -3.7799 8.4156 -2.6714 -11.8088 -12.1336 -21.9764 10.9977 7.5103 -30.8848 5.2906 3.2870 -15.6922 2.9034 0.0000 -0.0000 0.0000 -86.0309 23.4918 6.5996 28.9263 -39.9551 -10.7133 -0.0000 0.0000 -9.9502 11.6865 52.8793 9.3656 -7.1250 0.0000 -0.0000 -66.4881 75.5730 -52.2371 0.0000 -0.0000 0.0000 34.8434 15.1486 -86.0980 -18.1196 28.3101 -4.6058 0.0000 -0.0000 -52.3004 -11.7650 -5.2603 1.0939 7.1250 -0.0000 -0.0000 12.3579 -35.1288 3.0551
2.1211 18.3866 45.6369 -2.7972 12.2857 -5.4545 0.0000 0.0000 0.0000 -17.5703 -10.7137 0.6610 1.9068 8.6692 24.7660 0.5880 -1.7993 -13.9802 0.5912 -4.9226 -13.6880 0.0000 0.0000 0.0000 22.6639 1.2800 0.1067 -1.8642 -8.5772 24.4816 -0.4330 -15.9163 -26.3898 -0.5799 -4.8764 13.5563 -5.9602 -4.2701 17.2307 2.7917 -6.7588 -4.7927 8.4644 -2.4292 -14.0823 -12.4515 -21.9586 11.3693 6.5745 -30.9484 6.3757 3.0532 -15.7483 3.0919 -0.0000 0.0000 0.0000 -85.9333 25.2090 7.0797 29.2372 -40.2306 -10.9136 -0.0000 0.0000 -9.8216 11.1469 53.6522 9.0179 -7.1250 0.0000 -0.0000 -69.6366 75.5828 -55.1416 -0.0000 0.0000 0.0000 35.0699 13.9624 -85.3022 -18.2468 28.4720 -4.6663 0.0000 -0.0000 -51.9877 -12.2450 -4.5843 0.9938 7.1250 -0.0000 -0.0000 11.8569 -34.4763 3.1187
